# xmcd
# 
# Track frame offsets:
#     150
#     17045
#     71163
#     93049
#     118056
#     174983
#     214152
# 
# Disc length: 3462
# 
# Revision: 0
# Processed by: cddbd v1.5.2PL0 Copyright (c) Steve Scherf et al.
# Submitted via: fre:ac v1.0.17
# 
DISCID=590d8407
DTITLE=Jim Fay - Shaping Self Concept - Disc 2
DYEAR=0
DGENRE=Audiobook
TTITLE0=Chores Build Positive Self-Esteem
TTITLE1=Build Trusting Relationships
TTITLE2=Kids Know How To Push Your buttons
TTITLE3=Why Kids Put Each Other Down
TTITLE4=Let the Student Do the Thinking
TTITLE5=Take Away the Fight and Frustration
TTITLE6=Self-Concept Problems Come In Many Forms
EXTD=
EXTT0=
EXTT1=
EXTT2=
EXTT3=
EXTT4=
EXTT5=
EXTT6=
PLAYORDER=
